<?xml version="1.0" ?><svg style="enable-background:new 0 0 24 24;" version="1.1" viewBox="0 0 24 24" xml:space="preserve" xmlns="http://www.w3.org/2000/svg" xmlns:xlink="http://www.w3.org/1999/xlink"><style type="text/css">
	.st0{display:none;}
	.st1{display:inline;}
	.st2{opacity:0.2;fill:none;stroke:#000000;stroke-width:5.000000e-02;stroke-miterlimit:10;}
</style><g class="st0" id="grid_system"/><g id="_icons"><g><path d="M19.9,11c-0.6,0-1,0.4-1,1c0,3.9-3.1,7-7,7c-0.2,0-0.5,0-0.7,0c-0.2,0-0.3,0-0.5-0.1c-0.2,0-0.3-0.1-0.5-0.1    c-0.1,0-0.2-0.1-0.3-0.1c-0.7-0.2-1.4-0.6-2-1c-0.1-0.1-0.2-0.1-0.2-0.2c-0.1-0.1-0.2-0.2-0.3-0.2C7.2,17.2,7,17,6.9,16.9    c-0.1-0.1-0.1-0.1-0.2-0.2l1.8-0.3c0.5-0.1,0.9-0.6,0.8-1.2c-0.1-0.5-0.6-0.9-1.2-0.8L4.8,15l0,0L4,15.2c-0.3,0-0.5,0.2-0.6,0.4    s-0.2,0.5-0.2,0.7l0.8,4.2c0.1,0.5,0.5,0.8,1,0.8c0.1,0,0.1,0,0.2,0c0.5-0.1,0.9-0.6,0.8-1.2l-0.3-1.7c0,0,0,0,0,0    c0.2,0.2,0.5,0.4,0.7,0.6c0,0,0,0,0.1,0c0.1,0.1,0.2,0.2,0.3,0.2c0.2,0.2,0.4,0.3,0.7,0.4c0,0,0,0,0,0C7.7,20,8,20.1,8.3,20.3    l0.1,0c0.1,0.1,0.3,0.1,0.5,0.2c0.4,0.1,0.8,0.2,1.1,0.3c0.2,0,0.4,0.1,0.6,0.1c0,0,0.1,0,0.1,0c0.1,0,0.3,0,0.4,0    c0.2,0,0.5,0,0.7,0c5,0,9-4,9-9C20.9,11.4,20.4,11,19.9,11z" fill="#666666"/><path d="M4,13c0.6,0,1-0.4,1-1c0-3.9,3.1-7,7-7c0.2,0,0.5,0,0.7,0c0.2,0,0.3,0,0.5,0.1c0.2,0,0.3,0.1,0.5,0.1    c0.1,0,0.2,0.1,0.3,0.1c0.7,0.2,1.4,0.5,2,1c0.1,0.1,0.2,0.1,0.3,0.2c0.1,0.1,0.2,0.1,0.3,0.2C16.7,6.8,16.8,7,17,7.1    c0.1,0.1,0.1,0.1,0.2,0.2l-1.8,0.3c-0.5,0.1-0.9,0.6-0.8,1.2c0.1,0.5,0.5,0.8,1,0.8c0.1,0,0.1,0,0.2,0l4.2-0.8    c0.5-0.1,0.9-0.6,0.8-1.2L20,3.5c-0.1-0.5-0.6-0.9-1.2-0.8c-0.5,0.1-0.9,0.6-0.8,1.2l0.3,1.7c0,0,0,0,0,0    c-0.2-0.2-0.5-0.5-0.7-0.6c0,0,0,0-0.1,0c-0.1-0.1-0.2-0.2-0.3-0.2c-0.2-0.2-0.4-0.3-0.7-0.5c0,0,0,0,0,0    c-0.3-0.2-0.6-0.3-0.9-0.5l-0.1,0c-0.1-0.1-0.3-0.1-0.5-0.2c-0.4-0.1-0.8-0.2-1.1-0.3c-0.2,0-0.4-0.1-0.6-0.1c0,0-0.1,0-0.1,0    c-0.1,0-0.3,0-0.4,0c-0.2,0-0.5,0-0.7,0c-5,0-9,4-9,9C3,12.6,3.4,13,4,13z" fill="#666666"/></g></g></svg>